<?xml version="1.0" encoding="utf-8"?><svg xmlns="http://www.w3.org/2000/svg" xmlns:xlink="http://www.w3.org/1999/xlink"><symbol fill="none" viewBox="0 0 16 9" id="chevron-down" xmlns="http://www.w3.org/2000/svg"><path fill-rule="evenodd" clip-rule="evenodd" d="M.47.47a.75.75 0 011.06 0L8 6.94 14.47.47a.75.75 0 111.06 1.06l-7 7a.75.75 0 01-1.06 0l-7-7a.75.75 0 010-1.06z" fill="currentColor"/></symbol><symbol fill="none" viewBox="0 0 16 16" id="cross" xmlns="http://www.w3.org/2000/svg"><path d="M.293.292a1 1 0 011.414 0L8 6.585 14.293.292a1 1 0 111.414 1.414L9.414 8l6.293 6.293a1 1 0 01-1.414 1.414L8 9.413l-6.293 6.293a1 1 0 01-1.414-1.414L6.586 8 .293 1.706a1 1 0 010-1.414z" fill="currentColor"/></symbol></svg>